/* XPM */
static char * dbgfont_xpm[] = {
"96 48 2 1",
" 	c None",
".	c #FFFFFF",
"                                                                                                ",
"        .    .  .  .  .   .   ..  .  ..     .      .    .                                       ",
"        .    .  . .....  .... .. .. .       .     .      .    .     .                         . ",
"        .    .  .  .  . ...     ..   . ..   .    .        . . . .   .                        .  ",
"        .         .  .    ...  ..   .  .         .        .  ...  .....       .....         .   ",
"                  ..... ....  .. .. .  .          .      .  . . .   .     ..          ..   .    ",
"        .         .  .    .   .  ..  ....          .    .     .     .     .           ..        ",
"                                                                         .                      ",
"                                                                                                ",
" ...    ..   ...  .....   ... .....  ...  .....  ...   ...                                  ..  ",
"..  .  ...  .  ..    ..  . .. ..    ..       .. ..  . .  ..   ..    ..     ..        ..    .  . ",
".. ..   ..     ..  ...  .  .. ....  ....     ..  ...  .  ..   ..    ..    ..  .....   ..      . ",
"... .   ..   ...     .. .  ..    .. ..  .   ..  ..  .  ....              ..            ..   ..  ",
"..  .   ..  ..    .  .. .......  .. ..  .  ..   ..  .    ..   ..    ..    ..  .....   ..        ",
" ...   .... .....  ...     ..  ...   ...   ..    ...   ...    ..    .      ..        ..     ..  ",
"                                                                   .                            ",
"                                                                                                ",
" ...   ...  ....   ...  ....  ..... .....  ...  ..  .  ....    .. ..  . ..    .   . .   .  ...  ",
".   . ..  . ..  . ..  . ..  . ..    ..    ..  . ..  .   ..     .. .. .  ..    .. .. ..  . ..  . ",
". ... ..  . ....  ..    ..  . ....  ....  ..    .....   ..     .. ...   ..    ... . ... . ..  . ",
". ... ..... ..  . ..    ..  . ..    ..    .. .. ..  .   ..     .. .. .  ..    ..  . .. .. ..  . ",
".     ..  . ..  . ..  . ..  . ..    ..    ..  . ..  .   ..  .  .. ..  . ..    ..  . ..  . ..  . ",
" ...  ..  . ....   ...  ....  ..... ..     .... ..  .  ....  ...  ..  . ..... ..  . ..  .  ...  ",
"                                                                                                ",
"                                                                                                ",
"....   ...  ....   ....  .... ..  . ..  . ..  . ..  . ..  . .....  ....        ....   .         ",
"..  . ..  . ..  . ..      ..  ..  . ..  . ..  .  ...  ..  .    ..  .     .        .  ...        ",
"..  . ..  . ..  .  ...    ..  ..  . ..  . ..  .   .   ..  .   ..   .      .       . .. ..       ",
"....  ..  . ....     ..   ..  ..  . ..  . ... .  ...   ...   ..    .       .      . .   .       ",
"..    ..  . .. .  .. ..   ..  ..  .  . .  .. .. ..  .   ..  ..     .        .     .             ",
"..     ...  ..  .  ...    ..   ...    .   .   . ..  .   ..  .....  ....        ....       ..... ",
"          .                                                                                     ",
"                                                        .       .                               ",
"  .         .               .          ..       .                 .      ..                     ",
"   .    ... . ..    ..    ...  ...    .     ... . ..   ..      .. .  .    .   .. .  . ..    ..  ",
"       .  . ..  .  .  .  .  . .   .  ...   .  . ..  .   .       . . .     .   . . . ..  .  .  . ",
"      .   . .   . .     .   . ....    .   .   . .   .   .       . ...     .   . . . .   . .   . ",
"      .  .. .  .  .     .  .. .       .    .... .   .   .       . .  .    .   . . . .   . .  .  ",
"       .. . ...    ...   .. .  ...    .       . .   .  ...  .   . .   .    .  . . . .   .  ..   ",
"                                          ....               ...                                ",
"                                                                                          ......",
"                          .                                          .    .    .     .. . ......",
". ..    ... . ..   ....  ...  .   . .   . .   . .   . .   . .....   .     .     .   . ..  ......",
"..  .  .  . ..  . .       .   .   . .   . . . .  . .  .   .    .   ..     .     ..        ......",
".   . .   . .      ...    .   .   . .   . . . .   .   .   .   .     .     .     .         ......",
".  .  .  .. .         .   .   .  ..  . .  . . .  . .   . .   .      .     .     .         ......",
"...    .. . .     ....     ..  .. .   .    . .  .   .   .   .....    .    .    .          ......",
".         .                                           ..                                  ......"};
