/* XPM */
static char * dbgfont_xpm[] = {
"80 48 2 1",
" 	c None",
".	c #FFFFFF",
"                                                                                ",
"       .   . .  . .   .  .     ..    .     .  .                                 ",
"       .   . . ....  ... .  . .      .    .    .   . .                        . ",
"       .   . .  . . ..     .   . .   .   .      .   .    .                   .  ",
"       .       . .    ..  .   .  .       .      .  ...  ...       ...       .   ",
"               .... ...  .  . .  .        .    .    .    .    ..       ..  .    ",
"       .       . .   .      .  ...         .  .    . .        .        ..       ",
"                                                             .                  ",
"                                                                                ",
" ..    .   ..  ....   .  ....  ..  ....  ..   ..                             .  ",
".  .  ..  .  .    .  ..  .    .       . .  . .  .  ..   ..     .       .    . . ",
". ..   .     .  ..  . .  ...  ...    .   ..  .  .  ..   ..    .  ....   .     . ",
".. .   .    .     . . .     . .  .   .  .  .  ...            .           .   .  ",
".  .   .   .   .  . .... .  . .  .  .   .  .    .  ..   ..    .  ....   .       ",
" ..   ... ....  ..    .   ..   ..   .    ..   ..   ..   .      .       .     .  ",
"                                                       .                        ",
"                                                                                ",
" ..   ..  ...   ..  ...  .... ....  ..  .  .  ...    . .  . .    .  . .  .  ..  ",
".  . .  . .  . .  . .  . .    .    .  . .  .   .     . . .  .    .... .. . .  . ",
". .. .  . ...  .    .  . ...  ...  .    ....   .     . ..   .    .... .. . .  . ",
". .. .... .  . .    .  . .    .    . .. .  .   .     . . .  .    .  . . .. .  . ",
".    .  . .  . .  . .  . .    .    .  . .  .   .  .  . .  . .    .  . . .. .  . ",
" ..  .  . ...   ..  ...  .... .     ... .  .  ...  ..  .  . .... .  . .  .  ..  ",
"                                                                                ",
"                                                                                ",
"...   ..  ...   ..   ... .  . .  . .  . .  .  . . ....  ...       ...   .       ",
".  . .  . .  . .  .   .  .  . .  . .  . .  .  . .    .  .   .       .  . .      ",
".  . .  . .  .  .     .  .  . .  . .  .  ..   . .   .   .    .      .           ",
"...  .  . ...    .    .  .  . .  . ....  ..    .   .    .     .     .           ",
".    .. . . .  .  .   .  .  .  ..  .... .  .   .  .     .      .    .           ",
".     ..  .  .  ..    .   ..   ..  .  . .  .   .  ....  ...       ...      .... ",
"        .                                                                       ",
"                                                                                ",
" .        .            .        .       .      .     . .     ..                 ",
"  .       .            .       . .      .              .      .                 ",
"      ... ...   ..   ...  ..   .    ... ...   ..    .. . .    .  . .  ...   ..  ",
"     .  . .  . .    .  . . .. ...  .  . .  .   .     . ..     .  .... .  . .  . ",
"     . .. .  . .    .  . ..    .    ..  .  .   .     . . .    .  .. . .  . .  . ",
"      . . ...   ..   ...  ..   .   .    .  .  ... .  . .  .  ... .  . .  .  ..  ",
"                                    ...            ..                           ",
"                                                                           .....",
"                     .                                    .   .   .    . . .....",
"                     .                                   .    .    .  . .  .....",
"...   ... . .   ... ...  .  . .  . .  . .  . .  . ....  ..    .    ..      .....",
".  . .  . .. . ..    .   .  . .  . . ..  ..  .  .   .    .    .    .       .....",
".  . .  . .      ..  .   .  .  . . ....  ..   . .  .     .    .    .       .....",
"...   ... .    ...    ..  ...   .   . . .  .   .  ....    .   .   .        .....",
".       .                                     .                            ....."};
