/* XPM */
static char * dbgfont_xpm[] = {
"96 48 3 1",
" 	c #FF00FF",
".	c #FFFFFF",
"+	c #000000",
"                                                                                                ",
"        .    .  .  .  .   .   ..  .  ..     .      .    .                                       ",
"        .+   .+ .+.....+ .... ..+..+. ++    .+    . +    .    .     .                         . ",
"        .+   .+ .+ .++.+...+++ +..++ . ..   .+   . +      . . .+.   .+                       . +",
"        .+    +  +. +. + +...  ..++ . +.++   +   .+       .+ ... +.....       .....         . + ",
"         +        ..... ....++..+.. .+ .+         .      . +. .+.  +.+++  ..   +++++  ..   . +  ",
"        .         .++.++ +.++ .++..+ ....          .    . +  +.+ +  .+    .++         ..+   +   ",
"         +         +  +    +   +  ++  ++++          +    +     +     +   . +           ++       ",
"                                                                                                ",
" ...    ..   ...  .....   ... .....  ...  .....  ...   ...                                  ..  ",
"..++.  ...+ . +..  ++..+ . ..+..++++..+++  ++..+..++. . +..   ..    ..     ..        ..    . +. ",
"..+..+  ..+  + ..+ ...++. +..+....  ....     ..+ ... +.+ ..+  ..+   ..+   ..++.....   ..    + .+",
"... .+  ..+  ...++  +.. .+ ..+ ++.. ..++.   ..++..++.  ....+   ++    ++  ..++  +++++   ..   .. +",
"..++.+  ..+ ..+++ .  ..+.......  ..+..+ .+ ..++ ..+ .+  +..+  ..    ..    ..  .....   ..++   ++ ",
" ... + .... .....  ...++ ++..++...++ ... + ..+   ... + ...++  ..+   .++    ..  +++++ ..++   ..  ",
"  +++   ++++ +++++  +++     ++  +++   +++   ++    +++   +++    ++  . +      ++        ++     ++ ",
"                                                                                                ",
" ...   ...  ....   ...  ....  ..... .....  ...  ..  .  ....    .. ..  . ..    .   . .   .  ...  ",
". ++. ..++. ..++. ..++. ..++. ..++++..++++..++. ..+ .+  ..++   ..+..+. +..+   .. ..+..  .+..++. ",
".+...+..+ .+.... +..+  +..+ .+....  ....  ..+  +.....+  ..+    ..+... + ..+   ... .+... .+..+ .+",
".+...+.....+..++. ..+   ..+ .+..+++ ..+++ ..+.. ..++.+  ..+    ..+..+.  ..+   ..++.+..+..+..+ .+",
".+ +++..++.+..+ .+..+ . ..+ .+..+   ..+   ..+ .+..+ .+  ..+ .  ..+..+ . ..+   ..+ .+..+ .+..+ .+",
" ...  ..+ .+.... + ... +.... +..... ..+    ....+..+ .+ ....  ...++..+ .+..... ..+ .+..+ .+ ... +",
"  +++  ++  + ++++   +++  ++++  +++++ ++     ++++ ++  +  ++++  +++  ++  + +++++ ++  + ++  +  +++ ",
"                                                                                                ",
"....   ...  ....   ....  .... ..  . ..  . ..  . ..  . ..  . .....  ....        ....   .         ",
"..++. ..++. ..++. ..++++  ..++..+ .+..+ .+..+ .+ ... +..+ .+ ++..+ .++++ .      ++.+ ...        ",
"..+ .+..+ .+..+ .+ ...    ..+ ..+ .+..+ .+..+ .+  .++ ..+ .+  ..++ .+     .       .+..+..       ",
".... +..+ .+.... +  +..   ..+ ..+ .+..+ .+... .+ ...   ... + ..++  .+      .      .+.++ .+      ",
"..+++ ..+ .+..+.+ .. ..+  ..+ ..+ .+ .+. +..+..+..++.   ..+ ..++   .+       .     .+ +   +      ",
"..+    ... +..+ .  ...++  ..+  ... +  . + .++ .+..+ .+  ..+ .....  ....      + ....+      ..... ",
" ++     ++.  ++  +  +++    ++   +++    +   +   + ++  +   ++  +++++  ++++        ++++       +++++",
"                                                        .       .                               ",
"  .         .               .          ..       .        +       +.      ..                     ",
"   .    ... .+..    ..    ...+ ...    . ++  ... .+..   ..      .. .+ .    .+  .. .  . ..    ..  ",
"    +  . +.+.. +.  . +.  . +.+. ++.  ...   . +.+.. +.   .+      .+.+. +   .+  .+. . .. +.  . +. ",
"      . + .+.++ .+. +  +. + .+.... +  .++ . + .+.++ .+  .+      .+...+    .+  .+.+.+.++ .+. + .+",
"      .+ ..+.+ . +.+    .+ ..+.++++   .+   ....+.+  .+  .+      .+.++.    .+  .+.+.+.+  .+.+ . +",
"       .. .+... +  ...   .. .+ ...    .+    ++.+.+  .+ ...  .   .+.+  .    .  .+.+.+.+  .+ .. + ",
"        ++ + +++    +++   ++ +  +++    +  .... + +   +  +++  ... + +   +    +  + + + +   +  ++  ",
"                                                                                          ......",
"                          .                                          .    .    .     .. . ......",
". ..    ... . ..   ....  ...  .   . .   . .   . .   . .   . .....   . +   .+    .   . .. +......",
".. +.  . +.+.. +. . ++++  .++ .+  .+.+  .+.+. .+ . . +.+  .+ ++.++ ..+    .+    ..   + ++ ......",
".++ .+. + .+.++  + ...    .+  .+  .+.+  .+.+.+.+  . + .+  .+  . +   .+    .+    .++       ......",
".+ . +.+ ..+.+      ++.   .+  .+ ..+ . . +.+.+.+ . .   . . + . +    .+    .+    .+        ......",
"... +  .. .+.+    .... +   ..  .. .+  . +  . . +. + .   . + .....    .    .+   . +        ......",
".+++    ++.+ +     ++++     ++  ++ +   +    + +  +   +.. +   +++++    +    +    +         ......"};
